<svg xmlns="http://www.w3.org/2000/svg" xmlns:xlink="http://www.w3.org/1999/xlink" viewBox="60.75 5.632 424.267 537.333">
  <path fill="currentColor" d="M271.88 6.63L61.75 29.03v386.14l210.13 124.8 210.14-124.8V29.03l-208-22.4h-2.14zm0 501.34L88.42 399.17V241.3l182.4 108.8v19.2l-124.8-74.67v19.2l125.86 75.74v20.26l-125.86-74.66v19.2l125.86 74.66 126.94-75.73v-81.07l56.53-34.13v161.07l-183.47 108.8zM404.15 247.7l-23.47 13.87-109.86-65.07v19.2l93.86 56.53h-1.06l-2.14 1.07-13.86 7.47-77.87-45.87v19.2l61.87 36.27-14.94 9.6-45.86-27.74v19.2l30.93 18.14-30.93 18.13L89.48 219.97l181.34-108.8 183.46 106.66-50.13 29.87zM270.82 89.83l-182.4 108.8V53.57l183.46-19.2 183.47 19.2v145.06L270.82 89.83z"/>
</svg>
